<?xml version='1.0' encoding='utf-8'?>
<svg xmlns="http://www.w3.org/2000/svg" viewBox="0 0 128 128" width="128" height="128" role="img" data-theme="workshop">
  <title>Open focus ring</title>
  <desc>Original Timo workshop vector artwork. Geometric paths and shapes only; no raster images.</desc>
  <g id="focus" data-part="focus">
    <path d="M 18 38 A 53 53 0 0 1 38 18" transform="rotate(0 64 64)" fill="none" stroke="#FFFFFF" stroke-width="6" stroke-linecap="round" stroke-linejoin="round" data-stroke-role="white" />
    <path d="M 18 38 A 53 53 0 0 1 38 18" transform="rotate(0 64 64)" fill="none" stroke="#367FC1" stroke-width="3" stroke-linecap="round" stroke-linejoin="round" data-stroke-role="accent" />
    <path d="M 18 38 A 53 53 0 0 1 38 18" transform="rotate(90 64 64)" fill="none" stroke="#FFFFFF" stroke-width="6" stroke-linecap="round" stroke-linejoin="round" data-stroke-role="white" />
    <path d="M 18 38 A 53 53 0 0 1 38 18" transform="rotate(90 64 64)" fill="none" stroke="#367FC1" stroke-width="3" stroke-linecap="round" stroke-linejoin="round" data-stroke-role="accent" />
    <path d="M 18 38 A 53 53 0 0 1 38 18" transform="rotate(180 64 64)" fill="none" stroke="#FFFFFF" stroke-width="6" stroke-linecap="round" stroke-linejoin="round" data-stroke-role="white" />
    <path d="M 18 38 A 53 53 0 0 1 38 18" transform="rotate(180 64 64)" fill="none" stroke="#367FC1" stroke-width="3" stroke-linecap="round" stroke-linejoin="round" data-stroke-role="accent" />
    <path d="M 18 38 A 53 53 0 0 1 38 18" transform="rotate(270 64 64)" fill="none" stroke="#FFFFFF" stroke-width="6" stroke-linecap="round" stroke-linejoin="round" data-stroke-role="white" />
    <path d="M 18 38 A 53 53 0 0 1 38 18" transform="rotate(270 64 64)" fill="none" stroke="#367FC1" stroke-width="3" stroke-linecap="round" stroke-linejoin="round" data-stroke-role="accent" />
    <circle cx="64" cy="10" r="2.5" fill="#367FC1" data-fill-role="accent" />
    <circle cx="118" cy="64" r="2.5" fill="#367FC1" data-fill-role="accent" />
    <circle cx="64" cy="118" r="2.5" fill="#367FC1" data-fill-role="accent" />
    <circle cx="10" cy="64" r="2.5" fill="#367FC1" data-fill-role="accent" />
  </g>
</svg>